<svg width="887" height="887" viewBox="0 0 887 887" fill="none" xmlns="http://www.w3.org/2000/svg">
<rect width="887" height="887" rx="443.5" fill="#010409"/>
<rect x="4" y="4" width="879" height="879" rx="439.5" stroke="#209A23" stroke-opacity="0.58" stroke-width="8"/>
<rect x="50" y="40" width="787" height="807" rx="393.5" fill="#010409"/>
<rect x="52" y="42" width="783" height="803" rx="391.5" stroke="#209A23" stroke-opacity="0.29" stroke-width="4"/>
<rect x="90" y="90" width="707" height="707" rx="353.5" fill="#010409"/>
<rect x="91.8092" y="91.8092" width="703.382" height="703.382" rx="351.691" stroke="#209A23" stroke-opacity="0.29" stroke-width="3.61834"/>
<rect x="140" y="140" width="607" height="607" rx="303.5" fill="#010409"/>
<rect x="141.809" y="141.809" width="603.382" height="603.382" rx="301.691" stroke="#209A23" stroke-opacity="0.29" stroke-width="3.61834"/>
<rect x="190" y="190" width="507" height="507" rx="253.5" fill="#010409"/>
<rect x="191.809" y="191.809" width="503.382" height="503.382" rx="251.691" stroke="#209A23" stroke-opacity="0.29" stroke-width="3.61834"/>
<rect x="240" y="240" width="407" height="407" rx="203.5" fill="#010409"/>
<rect x="241.809" y="241.809" width="403.382" height="403.382" rx="201.691" stroke="#209A23" stroke-opacity="0.29" stroke-width="3.61834"/>
</svg>
