<svg width="36" height="36" viewBox="0 0 36 36" fill="none" xmlns="http://www.w3.org/2000/svg">
<path d="M18 0C27.9414 0 36 8.0586 36 18C36 27.9414 27.9414 36 18 36C8.0586 36 0 27.9414 0 18C0 8.0586 8.0586 0 18 0ZM18 2.511C13.8921 2.511 9.95237 4.14287 7.04762 7.04762C4.14287 9.95237 2.511 13.8921 2.511 18C2.511 22.1079 4.14287 26.0476 7.04762 28.9524C9.95237 31.8571 13.8921 33.489 18 33.489C22.1079 33.489 26.0476 31.8571 28.9524 28.9524C31.8571 26.0476 33.489 22.1079 33.489 18C33.489 13.8921 31.8571 9.95237 28.9524 7.04762C26.0476 4.14287 22.1079 2.511 18 2.511ZM16.326 10.0458C17.019 10.0458 17.5806 10.6092 17.5806 11.3022V20.0934H26.3718C26.6966 20.1057 27.0039 20.2434 27.2293 20.4775C27.4547 20.7116 27.5807 21.0239 27.5807 21.3489C27.5807 21.6739 27.4547 21.9862 27.2293 22.2203C27.0039 22.4544 26.6966 22.5921 26.3718 22.6044H16.326C15.9928 22.6044 15.6732 22.472 15.4376 22.2364C15.202 22.0008 15.0696 21.6812 15.0696 21.348V11.304C15.0696 10.6092 15.6312 10.0458 16.326 10.0458Z" fill="white"/>
</svg>
