<svg width="75" height="68" viewBox="0 0 75 68" fill="none" xmlns="http://www.w3.org/2000/svg">
<g filter="url(#filter0_f_121_271)">
<path d="M15.4167 57.3333C13.9271 57.3333 12.6515 56.8025 11.5898 55.7408C10.5281 54.6792 9.9982 53.4044 10 51.9167V19.4167C10 17.9271 10.5308 16.6515 11.5925 15.5898C12.6542 14.5281 13.9289 13.9982 15.4167 14H58.75C60.2396 14 61.5152 14.5308 62.5769 15.5925C63.6385 16.6542 64.1685 17.9289 64.1667 19.4167V51.9167C64.1667 53.4063 63.6358 54.6819 62.5742 55.7435C61.5125 56.8052 60.2378 57.3351 58.75 57.3333H15.4167ZM37.0833 38.375L15.4167 24.8333V51.9167H58.75V24.8333L37.0833 38.375ZM37.0833 32.9583L58.75 19.4167H15.4167L37.0833 32.9583ZM15.4167 24.8333V19.4167V51.9167V24.8333Z" fill="#FF0000"/>
</g>
<path d="M15.4167 57.3333C13.9271 57.3333 12.6515 56.8025 11.5898 55.7408C10.5281 54.6792 9.9982 53.4044 10 51.9167V19.4167C10 17.9271 10.5308 16.6515 11.5925 15.5898C12.6542 14.5281 13.9289 13.9982 15.4167 14H58.75C60.2396 14 61.5152 14.5308 62.5769 15.5925C63.6385 16.6542 64.1685 17.9289 64.1667 19.4167V51.9167C64.1667 53.4063 63.6358 54.6819 62.5742 55.7435C61.5125 56.8052 60.2378 57.3351 58.75 57.3333H15.4167ZM37.0833 38.375L15.4167 24.8333V51.9167H58.75V24.8333L37.0833 38.375ZM37.0833 32.9583L58.75 19.4167H15.4167L37.0833 32.9583ZM15.4167 24.8333V19.4167V51.9167V24.8333Z" fill="#FF0000"/>
<circle cx="63.5" cy="13.5" r="11.5" fill="white"/>
<path d="M65.521 6.36364L65.2614 15.9118H62.8244L62.5581 6.36364H65.521ZM64.0429 20.1731C63.6034 20.1731 63.2261 20.0178 62.911 19.707C62.5958 19.3919 62.4404 19.0146 62.4449 18.5751C62.4404 18.1401 62.5958 17.7672 62.911 17.4565C63.2261 17.1458 63.6034 16.9904 64.0429 16.9904C64.4646 16.9904 64.8352 17.1458 65.1548 17.4565C65.4744 17.7672 65.6365 18.1401 65.6409 18.5751C65.6365 18.8681 65.5588 19.1366 65.4078 19.3808C65.2614 19.6205 65.0683 19.8136 64.8286 19.96C64.5889 20.1021 64.327 20.1731 64.0429 20.1731Z" fill="#FF0000"/>
<defs>
<filter id="filter0_f_121_271" x="0" y="4" width="74.167" height="63.3333" filterUnits="userSpaceOnUse" color-interpolation-filters="sRGB">
<feFlood flood-opacity="0" result="BackgroundImageFix"/>
<feBlend mode="normal" in="SourceGraphic" in2="BackgroundImageFix" result="shape"/>
<feGaussianBlur stdDeviation="5" result="effect1_foregroundBlur_121_271"/>
</filter>
</defs>
</svg>
