<svg width="7" height="28" viewBox="0 0 7 28" fill="none" xmlns="http://www.w3.org/2000/svg">
<path d="M3.88911 6.22179C3.06404 6.22179 2.27278 5.89403 1.68937 5.31063C1.10597 4.72722 0.778211 3.93595 0.778211 3.11089C0.778211 2.28583 1.10597 1.49457 1.68937 0.911159C2.27278 0.327754 3.06404 -1.72046e-07 3.88911 -1.35982e-07C4.71417 -9.9917e-08 5.50543 0.327754 6.08884 0.91116C6.67225 1.49457 7 2.28583 7 3.11089C7 3.93595 6.67225 4.72722 6.08884 5.31063C5.50543 5.89403 4.71417 6.22179 3.88911 6.22179ZM3.8891 17.1099C3.06404 17.1099 2.27278 16.7822 1.68937 16.1988C1.10596 15.6154 0.77821 14.8241 0.778211 13.999C0.778211 13.174 1.10597 12.3827 1.68937 11.7993C2.27278 11.2159 3.06404 10.8881 3.88911 10.8881C4.71417 10.8881 5.50543 11.2159 6.08884 11.7993C6.67224 12.3827 7 13.174 7 13.999C7 14.8241 6.67224 15.6154 6.08884 16.1988C5.50543 16.7822 4.71417 17.1099 3.8891 17.1099ZM3.8891 27.998C3.06404 27.998 2.27278 27.6703 1.68937 27.0869C1.10596 26.5035 0.77821 25.7122 0.77821 24.8872C0.77821 24.0621 1.10596 23.2708 1.68937 22.6874C2.27278 22.104 3.06404 21.7763 3.8891 21.7763C4.71417 21.7763 5.50543 22.104 6.08884 22.6874C6.67224 23.2708 7 24.0621 7 24.8872C7 25.7122 6.67224 26.5035 6.08884 27.0869C5.50543 27.6703 4.71416 27.998 3.8891 27.998Z" fill="#808080"/>
</svg>
