<svg width="63" height="62" viewBox="0 0 63 62" fill="none" xmlns="http://www.w3.org/2000/svg">
<path d="M34.0465 2.13432L34.1008 2.17544L34.1616 2.14468L36.9682 0.724509L39.0969 3.04031L39.143 3.09047L39.2083 3.07106L42.2235 2.17486L43.9044 4.83354L43.9408 4.89111L44.0085 4.88368L47.1353 4.54025L48.3145 7.45635L48.34 7.51951L48.408 7.52428L51.5458 7.74467L52.1853 10.8245L52.1992 10.8912L52.2652 10.908L55.3132 11.6851L55.3926 14.8296L55.3943 14.8977L55.4563 14.9261L58.3165 16.2349L57.8332 19.3431L57.8227 19.4104L57.8786 19.4494L60.4592 21.2479L59.4286 24.2198L59.4063 24.2842L59.4543 24.3325L61.6723 26.5629L60.1276 29.303L60.0942 29.3624L60.1328 29.4185L61.9169 32.0091L59.9078 34.4294L59.8643 34.4818L59.8923 34.5439L61.1851 37.4115L58.7761 39.4341L58.7239 39.4779L58.7404 39.544L59.5004 42.5963L56.769 44.1563L56.7098 44.1901L56.7142 44.2581L56.917 47.397L53.951 48.4443L53.8867 48.4669L53.8789 48.5346L53.518 51.6593L50.4126 52.1601L50.3453 52.171L50.3255 52.2361L49.4125 55.2462L46.2676 55.1844L46.1994 55.1831L46.1684 55.2437L44.7325 58.0424L41.6491 57.4201L41.5824 57.4066L41.5409 57.4607L39.6284 59.958L36.7057 58.7951L36.6424 58.7699L36.592 58.8157L34.2643 60.9314L31.5963 59.2654L31.5385 59.2293L31.4807 59.2654L28.8127 60.9314L26.485 58.8157L26.4345 58.7699L26.3712 58.7951L23.4486 59.958L21.5361 57.4607L21.4946 57.4066L21.4279 57.4201L18.3445 58.0424L16.9086 55.2437L16.8775 55.1831L16.8094 55.1844L13.6645 55.2462L12.7514 52.2361L12.7317 52.171L12.6644 52.1601L9.55903 51.6593L9.19809 48.5346L9.19027 48.4669L9.12603 48.4443L6.15996 47.397L6.36276 44.2581L6.36715 44.1901L6.308 44.1563L3.57658 42.5963L4.3366 39.544L4.35306 39.4779L4.30089 39.4341L1.89192 37.4115L3.18474 34.5439L3.21274 34.4818L3.16922 34.4294L1.16012 32.0091L2.94419 29.4185L2.98282 29.3624L2.94937 29.303L1.40471 26.5629L3.62268 24.3325L3.67071 24.2842L3.64839 24.2198L2.61782 21.2479L5.19841 19.4494L5.25429 19.4104L5.24383 19.3431L4.76047 16.2349L7.62073 14.9261L7.68267 14.8977L7.68439 14.8296L7.76379 11.6851L10.8118 10.908L10.8778 10.8912L10.8916 10.8245L11.5312 7.74467L14.669 7.52428L14.737 7.51951L14.7625 7.45635L15.9417 4.54025L19.0684 4.88368L19.1362 4.89111L19.1726 4.83354L20.8535 2.17486L23.8687 3.07106L23.934 3.09047L23.9801 3.04031L26.1088 0.724509L28.9154 2.14468L28.9762 2.17544L29.0305 2.13432L31.5385 0.235823L34.0465 2.13432Z" fill="white" fill-opacity="0.05" stroke="white" stroke-width="0.218184"/>
<path d="M34.0465 2.13432L34.1008 2.17544L34.1616 2.14468L36.9682 0.724509L39.0969 3.04031L39.143 3.09047L39.2083 3.07106L42.2235 2.17486L43.9044 4.83354L43.9408 4.89111L44.0085 4.88368L47.1353 4.54025L48.3145 7.45635L48.34 7.51951L48.408 7.52428L51.5458 7.74467L52.1853 10.8245L52.1992 10.8912L52.2652 10.908L55.3132 11.6851L55.3926 14.8296L55.3943 14.8977L55.4563 14.9261L58.3165 16.2349L57.8332 19.3431L57.8227 19.4104L57.8786 19.4494L60.4592 21.2479L59.4286 24.2198L59.4063 24.2842L59.4543 24.3325L61.6723 26.5629L60.1276 29.303L60.0942 29.3624L60.1328 29.4185L61.9169 32.0091L59.9078 34.4294L59.8643 34.4818L59.8923 34.5439L61.1851 37.4115L58.7761 39.4341L58.7239 39.4779L58.7404 39.544L59.5004 42.5963L56.769 44.1563L56.7098 44.1901L56.7142 44.2581L56.917 47.397L53.951 48.4443L53.8867 48.4669L53.8789 48.5346L53.518 51.6593L50.4126 52.1601L50.3453 52.171L50.3255 52.2361L49.4125 55.2462L46.2676 55.1844L46.1994 55.1831L46.1684 55.2437L44.7325 58.0424L41.6491 57.4201L41.5824 57.4066L41.5409 57.4607L39.6284 59.958L36.7057 58.7951L36.6424 58.7699L36.592 58.8157L34.2643 60.9314L31.5963 59.2654L31.5385 59.2293L31.4807 59.2654L28.8127 60.9314L26.485 58.8157L26.4345 58.7699L26.3712 58.7951L23.4486 59.958L21.5361 57.4607L21.4946 57.4066L21.4279 57.4201L18.3445 58.0424L16.9086 55.2437L16.8775 55.1831L16.8094 55.1844L13.6645 55.2462L12.7514 52.2361L12.7317 52.171L12.6644 52.1601L9.55903 51.6593L9.19809 48.5346L9.19027 48.4669L9.12603 48.4443L6.15996 47.397L6.36276 44.2581L6.36715 44.1901L6.308 44.1563L3.57658 42.5963L4.3366 39.544L4.35306 39.4779L4.30089 39.4341L1.89192 37.4115L3.18474 34.5439L3.21274 34.4818L3.16922 34.4294L1.16012 32.0091L2.94419 29.4185L2.98282 29.3624L2.94937 29.303L1.40471 26.5629L3.62268 24.3325L3.67071 24.2842L3.64839 24.2198L2.61782 21.2479L5.19841 19.4494L5.25429 19.4104L5.24383 19.3431L4.76047 16.2349L7.62073 14.9261L7.68267 14.8977L7.68439 14.8296L7.76379 11.6851L10.8118 10.908L10.8778 10.8912L10.8916 10.8245L11.5312 7.74467L14.669 7.52428L14.737 7.51951L14.7625 7.45635L15.9417 4.54025L19.0684 4.88368L19.1362 4.89111L19.1726 4.83354L20.8535 2.17486L23.8687 3.07106L23.934 3.09047L23.9801 3.04031L26.1088 0.724509L28.9154 2.14468L28.9762 2.17544L29.0305 2.13432L31.5385 0.235823L34.0465 2.13432Z" fill="#1E1E1E" fill-opacity="0.75" stroke="white" stroke-width="0.218184"/>
<path d="M22.22 31.8664C22.3091 31.7785 22.415 31.7088 22.5315 31.6612C22.6481 31.6136 22.773 31.5891 22.8991 31.5891C23.0253 31.5891 23.1502 31.6136 23.2667 31.6612C23.3833 31.7088 23.4892 31.7785 23.5783 31.8664L30.5787 38.7622L30.5787 20.2447C30.5787 19.9939 30.6799 19.7535 30.8599 19.5761C31.0399 19.3988 31.2841 19.2992 31.5387 19.2992C31.7933 19.2992 32.0374 19.3988 32.2175 19.5761C32.3975 19.7535 32.4986 19.9939 32.4986 20.2447L32.4986 38.7622L39.499 31.8664C39.6792 31.689 39.9235 31.5894 40.1782 31.5894C40.4329 31.5894 40.6772 31.689 40.8574 31.8664C41.0375 32.0438 41.1387 32.2844 41.1387 32.5353C41.1387 32.7862 41.0375 33.0268 40.8574 33.2042L32.2178 41.7131C32.1287 41.801 32.0228 41.8708 31.9063 41.9183C31.7897 41.9659 31.6648 41.9904 31.5387 41.9904C31.4125 41.9904 31.2876 41.9659 31.1711 41.9183C31.0545 41.8708 30.9487 41.801 30.8595 41.7131L22.22 33.2042C22.1307 33.1164 22.0599 33.0121 22.0116 32.8974C21.9633 32.7826 21.9384 32.6596 21.9384 32.5353C21.9384 32.4111 21.9633 32.2881 22.0116 32.1733C22.0599 32.0585 22.1307 31.9542 22.22 31.8664Z" fill="white"/>
</svg>
