<svg width="261" height="57" viewBox="0 0 261 57" fill="none" xmlns="http://www.w3.org/2000/svg">
<path d="M69.2649 41.1226L66.6352 33.6719H57.701L55.1051 41.1226H52.0371L60.8027 16.9498H63.6347L72.3665 41.1226H69.2649ZM63.2638 23.6926C63.2189 23.5128 63.1177 23.1869 62.9604 22.7149C62.8255 22.2429 62.6794 21.7597 62.5221 21.2652C62.3872 20.7482 62.2749 20.3549 62.185 20.0852C62.0726 20.5347 61.949 20.9955 61.8141 21.4675C61.7017 21.917 61.5894 22.3328 61.477 22.7149C61.3646 23.097 61.2635 23.4229 61.1736 23.6926L58.6787 30.9748H65.7586L63.2638 23.6926ZM81.9916 41.1226H73.6643V39.3695L76.3276 38.7289V19.4784L73.6643 18.8041V17.051H81.9916V18.8041L79.3282 19.4784V38.7289L81.9916 39.3695V41.1226ZM104.521 28.8508C104.521 31.5479 104.049 33.8067 103.105 35.6273C102.161 37.4478 100.802 38.8188 99.026 39.7404C97.2729 40.6619 95.1489 41.1226 92.6541 41.1226H86.3496V17.051H93.3284C95.6209 17.051 97.5988 17.5005 99.262 18.3995C100.948 19.2985 102.24 20.6246 103.139 22.3777C104.061 24.1084 104.521 26.2661 104.521 28.8508ZM101.352 28.9519C101.352 26.8167 101.026 25.0636 100.375 23.6926C99.7227 22.3216 98.7675 21.3101 97.5089 20.6583C96.2727 19.9841 94.7556 19.6469 92.9575 19.6469H89.3501V38.5267H92.3507C95.3624 38.5267 97.61 37.7288 99.0934 36.133C100.599 34.5147 101.352 32.121 101.352 28.9519ZM115.698 22.7149C117.159 22.7149 118.418 23.052 119.474 23.7263C120.531 24.4006 121.34 25.3558 121.902 26.592C122.486 27.8057 122.778 29.2329 122.778 30.8736V32.6605H111.181C111.226 34.7058 111.709 36.2678 112.63 37.3467C113.552 38.403 114.844 38.9312 116.507 38.9312C117.586 38.9312 118.541 38.8301 119.373 38.6278C120.227 38.403 121.104 38.0884 122.003 37.6838V40.2798C121.126 40.6843 120.261 40.9765 119.407 41.1563C118.575 41.3586 117.564 41.4598 116.373 41.4598C114.754 41.4598 113.327 41.1114 112.091 40.4146C110.855 39.7179 109.888 38.684 109.192 37.313C108.495 35.9195 108.146 34.2225 108.146 32.2222C108.146 30.2443 108.461 28.5474 109.09 27.1314C109.72 25.7154 110.596 24.6253 111.72 23.8611C112.866 23.097 114.192 22.7149 115.698 22.7149ZM115.698 25.1423C114.395 25.1423 113.361 25.603 112.597 26.5245C111.832 27.4236 111.383 28.6822 111.248 30.3005H119.744C119.744 29.2666 119.598 28.3676 119.306 27.6034C119.013 26.8392 118.564 26.2436 117.957 25.8165C117.373 25.367 116.62 25.1423 115.698 25.1423ZM134.99 25.3446H130.742V41.1226H127.775V25.3446H124.842V23.9623L127.775 22.9509V21.9057C127.775 20.3549 127.989 19.0963 128.416 18.1298C128.866 17.1633 129.506 16.4553 130.338 16.0058C131.169 15.5563 132.169 15.3316 133.338 15.3316C134.035 15.3316 134.664 15.399 135.226 15.5338C135.811 15.6462 136.316 15.7811 136.743 15.9384L135.968 18.2647C135.608 18.1523 135.204 18.0399 134.754 17.9275C134.327 17.8151 133.878 17.7589 133.406 17.7589C132.507 17.7589 131.832 18.0961 131.383 18.7704C130.956 19.4222 130.742 20.4561 130.742 21.872V23.052H134.99V25.3446ZM144.638 22.7149C146.099 22.7149 147.358 23.052 148.414 23.7263C149.47 24.4006 150.28 25.3558 150.841 26.592C151.426 27.8057 151.718 29.2329 151.718 30.8736V32.6605H140.12C140.165 34.7058 140.649 36.2678 141.57 37.3467C142.492 38.403 143.784 38.9312 145.447 38.9312C146.526 38.9312 147.481 38.8301 148.313 38.6278C149.167 38.403 150.044 38.0884 150.943 37.6838V40.2798C150.066 40.6843 149.201 40.9765 148.347 41.1563C147.515 41.3586 146.504 41.4598 145.312 41.4598C143.694 41.4598 142.267 41.1114 141.031 40.4146C139.795 39.7179 138.828 38.684 138.131 37.313C137.435 35.9195 137.086 34.2225 137.086 32.2222C137.086 30.2443 137.401 28.5474 138.03 27.1314C138.66 25.7154 139.536 24.6253 140.66 23.8611C141.806 23.097 143.132 22.7149 144.638 22.7149ZM144.638 25.1423C143.335 25.1423 142.301 25.603 141.536 26.5245C140.772 27.4236 140.323 28.6822 140.188 30.3005H148.684C148.684 29.2666 148.538 28.3676 148.246 27.6034C147.953 26.8392 147.504 26.2436 146.897 25.8165C146.313 25.367 145.56 25.1423 144.638 25.1423ZM164.267 22.7149C166.29 22.7149 167.818 23.2431 168.852 24.2994C169.909 25.3333 170.437 27.019 170.437 29.3565V41.1226H167.504V29.5588C167.504 28.0979 167.2 27.0078 166.593 26.2885C165.987 25.5693 165.054 25.2097 163.795 25.2097C161.952 25.2097 160.671 25.7716 159.952 26.8954C159.255 28.0192 158.907 29.6374 158.907 31.7502V41.1226H155.974V23.052H158.334L158.772 25.5131H158.94C159.3 24.8838 159.761 24.3669 160.323 23.9623C160.885 23.5352 161.503 23.2206 162.177 23.0183C162.851 22.816 163.548 22.7149 164.267 22.7149ZM186.821 36.133C186.821 37.3017 186.54 38.2794 185.978 39.0661C185.439 39.8527 184.664 40.4483 183.652 40.8529C182.641 41.2575 181.427 41.4598 180.011 41.4598C178.82 41.4598 177.786 41.3586 176.909 41.1563C176.055 40.9541 175.302 40.6731 174.651 40.3135V37.6164C175.347 37.976 176.179 38.3131 177.145 38.6278C178.112 38.92 179.09 39.0661 180.078 39.0661C181.45 39.0661 182.438 38.8301 183.045 38.3581C183.675 37.8636 183.989 37.2118 183.989 36.4027C183.989 35.9532 183.866 35.5486 183.618 35.189C183.394 34.8294 182.978 34.4698 182.371 34.1101C181.787 33.7505 180.933 33.346 179.809 32.8964C178.73 32.4469 177.797 31.9974 177.011 31.5479C176.246 31.0984 175.651 30.559 175.224 29.9296C174.819 29.3003 174.617 28.4912 174.617 27.5022C174.617 25.9739 175.201 24.7939 176.37 23.9623C177.561 23.1307 179.112 22.7149 181.022 22.7149C182.056 22.7149 183.023 22.8273 183.922 23.052C184.821 23.2543 185.675 23.5465 186.484 23.9286L185.506 26.2885C185.034 26.0638 184.54 25.8727 184.023 25.7154C183.506 25.5356 182.978 25.4007 182.438 25.3108C181.921 25.1985 181.393 25.1423 180.854 25.1423C179.753 25.1423 178.91 25.3446 178.325 25.7491C177.741 26.1312 177.449 26.6594 177.449 27.3337C177.449 27.8281 177.584 28.2552 177.853 28.6148C178.123 28.9744 178.561 29.3228 179.168 29.6599C179.798 29.9746 180.652 30.3454 181.73 30.7725C182.809 31.1995 183.731 31.6378 184.495 32.0873C185.259 32.5368 185.832 33.0875 186.214 33.7393C186.619 34.3686 186.821 35.1665 186.821 36.133ZM197.514 22.7149C198.974 22.7149 200.233 23.052 201.289 23.7263C202.346 24.4006 203.155 25.3558 203.717 26.592C204.301 27.8057 204.593 29.2329 204.593 30.8736V32.6605H192.996C193.041 34.7058 193.524 36.2678 194.446 37.3467C195.367 38.403 196.659 38.9312 198.323 38.9312C199.401 38.9312 200.357 38.8301 201.188 38.6278C202.042 38.403 202.919 38.0884 203.818 37.6838V40.2798C202.941 40.6843 202.076 40.9765 201.222 41.1563C200.39 41.3586 199.379 41.4598 198.188 41.4598C196.57 41.4598 195.142 41.1114 193.906 40.4146C192.67 39.7179 191.704 38.684 191.007 37.313C190.31 35.9195 189.962 34.2225 189.962 32.2222C189.962 30.2443 190.276 28.5474 190.906 27.1314C191.535 25.7154 192.411 24.6253 193.535 23.8611C194.682 23.097 196.008 22.7149 197.514 22.7149ZM197.514 25.1423C196.21 25.1423 195.176 25.603 194.412 26.5245C193.648 27.4236 193.198 28.6822 193.063 30.3005H201.559C201.559 29.2666 201.413 28.3676 201.121 27.6034C200.829 26.8392 200.379 26.2436 199.772 25.8165C199.188 25.367 198.435 25.1423 197.514 25.1423ZM227.358 41.1226H223.818L211.883 21.1303H211.748C211.771 21.5349 211.793 21.9844 211.816 22.4789C211.861 22.9734 211.894 23.5128 211.917 24.0971C211.939 24.659 211.962 25.2434 211.984 25.8503C212.007 26.4571 212.018 27.064 212.018 27.6708V41.1226H209.254V17.051H212.76L224.661 36.9758H224.796C224.773 36.7061 224.751 36.3353 224.728 35.8633C224.706 35.3688 224.683 34.8294 224.661 34.245C224.638 33.6382 224.616 33.0201 224.593 32.3907C224.571 31.7614 224.56 31.177 224.56 30.6376V17.051H227.358V41.1226ZM239.689 22.7149C241.15 22.7149 242.408 23.052 243.465 23.7263C244.521 24.4006 245.33 25.3558 245.892 26.592C246.476 27.8057 246.769 29.2329 246.769 30.8736V32.6605H235.171C235.216 34.7058 235.699 36.2678 236.621 37.3467C237.542 38.403 238.835 38.9312 240.498 38.9312C241.577 38.9312 242.532 38.8301 243.364 38.6278C244.218 38.403 245.094 38.0884 245.993 37.6838V40.2798C245.117 40.6843 244.251 40.9765 243.397 41.1563C242.566 41.3586 241.554 41.4598 240.363 41.4598C238.745 41.4598 237.317 41.1114 236.081 40.4146C234.845 39.7179 233.879 38.684 233.182 37.313C232.485 35.9195 232.137 34.2225 232.137 32.2222C232.137 30.2443 232.451 28.5474 233.081 27.1314C233.71 25.7154 234.587 24.6253 235.71 23.8611C236.857 23.097 238.183 22.7149 239.689 22.7149ZM239.689 25.1423C238.385 25.1423 237.351 25.603 236.587 26.5245C235.823 27.4236 235.373 28.6822 235.238 30.3005H243.734C243.734 29.2666 243.588 28.3676 243.296 27.6034C243.004 26.8392 242.554 26.2436 241.948 25.8165C241.363 25.367 240.61 25.1423 239.689 25.1423ZM256.857 39.0324C257.284 39.0324 257.722 38.9986 258.172 38.9312C258.621 38.8413 258.992 38.7514 259.284 38.6615V40.9203C258.969 41.0777 258.52 41.2013 257.936 41.2912C257.374 41.4036 256.834 41.4598 256.317 41.4598C255.418 41.4598 254.587 41.3024 253.822 40.9878C253.058 40.6506 252.44 40.0775 251.968 39.2684C251.519 38.4592 251.294 37.3242 251.294 35.8633V25.3446H248.9V23.9286L251.361 22.7486L252.474 18.9052H254.227V23.052H259.149V25.3446H254.227V35.7958C254.227 36.8972 254.474 37.7175 254.969 38.2569C255.463 38.7739 256.092 39.0324 256.857 39.0324Z" fill="url(#paint0_linear_63_7304)"/>
<path d="M22.804 55.5101C22.804 55.5101 44.6081 44.6081 44.6081 28.2551V6.45101L22.804 1L1 6.45101V28.2551C1 44.6081 22.804 55.5101 22.804 55.5101Z" stroke="url(#paint1_linear_63_7304)" stroke-width="1.78988" stroke-linecap="round" stroke-linejoin="round"/>
<path d="M33.9881 26.0897C34.2912 26.9738 35.1501 27.6053 36.1352 27.6053C37.3982 27.6053 38.4087 26.5949 38.4087 25.3318C38.4087 24.0688 37.3982 23.0584 36.1352 23.0584C35.1501 23.0584 34.3165 23.6899 33.9881 24.574H32.8514V21.5428H34.8722C35.9837 21.5428 36.893 20.6334 36.893 19.5219V18.8904C37.7772 18.5873 38.4087 17.7284 38.4087 16.7433C38.4087 15.4803 37.3982 14.4698 36.1352 14.4698C34.8722 14.4698 33.8618 15.4803 33.8618 16.7433C33.8618 17.7284 34.4933 18.562 35.3774 18.8904V19.5219C35.3774 19.7998 35.1501 20.0271 34.8722 20.0271H32.8514C32.8514 17.3748 30.7042 15.2277 28.0519 15.2277V13.2068C28.0519 12.9289 28.2792 12.7016 28.5571 12.7016H29.1886C29.4917 13.5857 30.3506 14.2172 31.3357 14.2172C32.5988 14.2172 33.6092 13.2068 33.6092 11.9438C33.6092 10.6808 32.5988 9.67035 31.3357 9.67035C30.3506 9.67035 29.517 10.3019 29.1886 11.186H28.5571C27.4456 11.186 26.5363 12.0954 26.5363 13.2068V15.2277H23.505V14.0909C24.3891 13.7878 25.0206 12.9289 25.0206 11.9438C25.0206 10.6808 24.0102 9.67035 22.7472 9.67035C21.4842 9.67035 20.4737 10.6808 20.4737 11.9438C20.4737 12.9289 21.1053 13.7625 21.9894 14.0909V15.2277H18.9581V13.2068C18.9581 12.0954 18.0487 11.186 16.9373 11.186H16.3058C16.0026 10.3019 15.1438 9.67035 14.1586 9.67035C12.8956 9.67035 11.8852 10.6808 11.8852 11.9438C11.8852 13.2068 12.8956 14.2172 14.1586 14.2172C15.1438 14.2172 15.9774 13.5857 16.3058 12.7016H16.9373C17.2151 12.7016 17.4425 12.9289 17.4425 13.2068V15.2277C14.7901 15.2277 12.643 17.3748 12.643 20.0271H10.6222C10.3443 20.0271 10.1169 19.7998 10.1169 19.5219V18.8904C11.0011 18.5873 11.6326 17.7284 11.6326 16.7433C11.6326 15.4803 10.6222 14.4698 9.35914 14.4698C8.09611 14.4698 7.08569 15.4803 7.08569 16.7433C7.08569 17.7284 7.7172 18.562 8.60132 18.8904V19.5219C8.60132 20.6334 9.5107 21.5428 10.6222 21.5428H12.643V24.574H11.5063C11.2031 23.6899 10.3443 23.0584 9.35914 23.0584C8.09611 23.0584 7.08569 24.0688 7.08569 25.3318C7.08569 26.5949 8.09611 27.6053 9.35914 27.6053C10.3443 27.6053 11.1779 26.9738 11.5063 26.0897H12.643V29.1209H10.6222C9.5107 29.1209 8.60132 30.0303 8.60132 31.1417V31.7733C7.7172 32.0764 7.08569 32.9352 7.08569 33.9204C7.08569 35.1834 8.09611 36.1938 9.35914 36.1938C10.6222 36.1938 11.6326 35.1834 11.6326 33.9204C11.6326 32.9352 11.0011 32.1016 10.1169 31.7733V31.1417C10.1169 30.8639 10.3443 30.6365 10.6222 30.6365H12.643C12.643 33.2889 14.7901 35.436 17.4425 35.436V37.4569C17.4425 37.7347 17.2151 37.9621 16.9373 37.9621H16.3058C16.0026 37.078 15.1438 36.4464 14.1586 36.4464C12.8956 36.4464 11.8852 37.4569 11.8852 38.7199C11.8852 39.9829 12.8956 40.9933 14.1586 40.9933C15.1438 40.9933 15.9774 40.3618 16.3058 39.4777H16.9373C18.0487 39.4777 18.9581 38.5683 18.9581 37.4569V35.436H21.9894V36.5727C21.1053 36.8759 20.4737 37.7347 20.4737 38.7199C20.4737 39.9829 21.4842 40.9933 22.7472 40.9933C24.0102 40.9933 25.0206 39.9829 25.0206 38.7199C25.0206 37.7347 24.3891 36.9011 23.505 36.5727V35.436H26.5363V37.4569C26.5363 38.5683 27.4456 39.4777 28.5571 39.4777H29.1886C29.4917 40.3618 30.3506 40.9933 31.3357 40.9933C32.5988 40.9933 33.6092 39.9829 33.6092 38.7199C33.6092 37.4569 32.5988 36.4464 31.3357 36.4464C30.3506 36.4464 29.517 37.078 29.1886 37.9621H28.5571C28.2792 37.9621 28.0519 37.7347 28.0519 37.4569V35.436C30.7042 35.436 32.8514 33.2889 32.8514 30.6365H34.8722C35.1501 30.6365 35.3774 30.8639 35.3774 31.1417V31.7733C34.4933 32.0764 33.8618 32.9352 33.8618 33.9204C33.8618 35.1834 34.8722 36.1938 36.1352 36.1938C37.3982 36.1938 38.4087 35.1834 38.4087 33.9204C38.4087 32.9352 37.7772 32.1016 36.893 31.7733V31.1417C36.893 30.0303 35.9837 29.1209 34.8722 29.1209H32.8514V26.0897H33.9881ZM36.1352 24.574C36.5647 24.574 36.893 24.9024 36.893 25.3318C36.893 25.7613 36.5647 26.0897 36.1352 26.0897C35.7058 26.0897 35.3774 25.7613 35.3774 25.3318C35.3774 24.9024 35.7058 24.574 36.1352 24.574ZM36.1352 15.9855C36.5647 15.9855 36.893 16.3139 36.893 16.7433C36.893 17.1727 36.5647 17.5011 36.1352 17.5011C35.7058 17.5011 35.3774 17.1727 35.3774 16.7433C35.3774 16.3139 35.7058 15.9855 36.1352 15.9855ZM31.3357 11.186C31.7652 11.186 32.0936 11.5144 32.0936 11.9438C32.0936 12.3732 31.7652 12.7016 31.3357 12.7016C30.9063 12.7016 30.5779 12.3732 30.5779 11.9438C30.5779 11.5144 30.9063 11.186 31.3357 11.186ZM22.7472 11.186C23.1766 11.186 23.505 11.5144 23.505 11.9438C23.505 12.3732 23.1766 12.7016 22.7472 12.7016C22.3178 12.7016 21.9894 12.3732 21.9894 11.9438C21.9894 11.5144 22.3178 11.186 22.7472 11.186ZM14.1586 12.7016C13.7292 12.7016 13.4008 12.3732 13.4008 11.9438C13.4008 11.5144 13.7292 11.186 14.1586 11.186C14.5881 11.186 14.9164 11.5144 14.9164 11.9438C14.9164 12.3732 14.5881 12.7016 14.1586 12.7016ZM9.35914 15.9855C9.78856 15.9855 10.1169 16.3139 10.1169 16.7433C10.1169 17.1727 9.78856 17.5011 9.35914 17.5011C8.92971 17.5011 8.60132 17.1727 8.60132 16.7433C8.60132 16.3139 8.92971 15.9855 9.35914 15.9855ZM9.35914 26.0897C8.92971 26.0897 8.60132 25.7613 8.60132 25.3318C8.60132 24.9024 8.92971 24.574 9.35914 24.574C9.78856 24.574 10.1169 24.9024 10.1169 25.3318C10.1169 25.7613 9.78856 26.0897 9.35914 26.0897ZM9.35914 34.6782C8.92971 34.6782 8.60132 34.3498 8.60132 33.9204C8.60132 33.491 8.92971 33.1626 9.35914 33.1626C9.78856 33.1626 10.1169 33.491 10.1169 33.9204C10.1169 34.3498 9.78856 34.6782 9.35914 34.6782ZM14.1586 39.4777C13.7292 39.4777 13.4008 39.1493 13.4008 38.7199C13.4008 38.2905 13.7292 37.9621 14.1586 37.9621C14.5881 37.9621 14.9164 38.2905 14.9164 38.7199C14.9164 39.1493 14.5881 39.4777 14.1586 39.4777ZM22.7472 39.4777C22.3178 39.4777 21.9894 39.1493 21.9894 38.7199C21.9894 38.2905 22.3178 37.9621 22.7472 37.9621C23.1766 37.9621 23.505 38.2905 23.505 38.7199C23.505 39.1493 23.1766 39.4777 22.7472 39.4777ZM31.3357 37.9621C31.7652 37.9621 32.0936 38.2905 32.0936 38.7199C32.0936 39.1493 31.7652 39.4777 31.3357 39.4777C30.9063 39.4777 30.5779 39.1493 30.5779 38.7199C30.5779 38.2905 30.9063 37.9621 31.3357 37.9621ZM36.1352 34.6782C35.7058 34.6782 35.3774 34.3498 35.3774 33.9204C35.3774 33.491 35.7058 33.1626 36.1352 33.1626C36.5647 33.1626 36.893 33.491 36.893 33.9204C36.893 34.3498 36.5647 34.6782 36.1352 34.6782ZM31.3357 30.6365C31.3357 32.4553 29.8706 33.9204 28.0519 33.9204H17.4425C15.6237 33.9204 14.1586 32.4553 14.1586 30.6365V20.0271C14.1586 18.2084 15.6237 16.7433 17.4425 16.7433H28.0519C29.8706 16.7433 31.3357 18.2084 31.3357 20.0271V30.6365Z" stroke="#97D700" stroke-width="0.3" stroke-linecap="round" stroke-linejoin="round"/>
<path d="M27.7236 19.042C24.566 17.5264 20.9285 17.5264 17.7457 19.042C17.1647 19.3199 16.71 19.7745 16.4321 20.3555C14.9165 23.5131 14.9165 27.1506 16.4321 30.3334C16.71 30.9144 17.1647 31.3691 17.7457 31.647C19.3371 32.4048 21.0295 32.7837 22.722 32.7837C24.4144 32.7837 26.1321 32.4048 27.6983 31.647C28.2793 31.3691 28.734 30.9144 29.0118 30.3334C30.5275 27.1759 30.5275 23.5384 29.0118 20.3555C28.7592 19.7745 28.3045 19.3199 27.7236 19.042ZM27.673 29.6514C27.5467 29.904 27.3447 30.1313 27.0668 30.2576C24.3134 31.5712 21.1558 31.5712 18.4024 30.2576C18.1498 30.1313 17.9225 29.9293 17.7962 29.6514C16.4827 26.898 16.4827 23.7404 17.7962 20.987C17.9225 20.7344 18.1246 20.5071 18.4024 20.3808C19.7665 19.724 21.2569 19.3956 22.722 19.3956C24.2124 19.3956 25.6775 19.724 27.0415 20.3808C27.2941 20.5071 27.5215 20.7092 27.6478 20.987C28.9866 23.7657 28.9866 26.9233 27.673 29.6514Z" stroke="#97D700" stroke-width="0.3" stroke-linecap="round" stroke-linejoin="round"/>
<path d="M21.9389 22.3006C21.8378 21.9975 21.5347 21.7954 21.2316 21.7954C20.9032 21.7954 20.6253 21.9975 20.5243 22.3006L18.5034 27.8579C18.3519 28.2621 18.554 28.6915 18.9581 28.8178C19.3623 28.9694 19.7917 28.7673 19.918 28.3631L20.0949 27.8579H22.343L22.5199 28.3631C22.6209 28.6663 22.924 28.8683 23.2272 28.8683C23.3029 28.8683 23.404 28.8431 23.4798 28.8178C23.8839 28.6663 24.086 28.2368 23.9344 27.8579L21.9389 22.3006ZM20.6506 26.3423L21.2316 24.7761L21.8126 26.3423H20.6506ZM25.7785 21.7954C25.349 21.7954 25.0206 22.1238 25.0206 22.5532V28.1105C25.0206 28.54 25.349 28.8683 25.7785 28.8683C26.2079 28.8683 26.5363 28.54 26.5363 28.1105V22.5532C26.5363 22.1238 26.2079 21.7954 25.7785 21.7954Z" stroke="#97D700" stroke-width="0.3" stroke-linecap="round" stroke-linejoin="round"/>
<defs>
<linearGradient id="paint0_linear_63_7304" x1="156.037" y1="5.12262" x2="156.037" y2="51.1226" gradientUnits="userSpaceOnUse">
<stop stop-color="#299C00"/>
<stop offset="0.963542" stop-color="#97D700"/>
</linearGradient>
<linearGradient id="paint1_linear_63_7304" x1="22.804" y1="1" x2="22.804" y2="55.5101" gradientUnits="userSpaceOnUse">
<stop stop-color="#299C00"/>
<stop offset="0.470839" stop-color="#153F07"/>
<stop offset="1" stop-color="#97D700"/>
</linearGradient>
</defs>
</svg>
