<svg width="33" height="9" viewBox="0 0 33 9" fill="none" xmlns="http://www.w3.org/2000/svg">
<path d="M33 4.73684C31.1007 6.86842 27.5396 9 23.741 9C20.1799 9 18.0432 7.81579 16.1439 6.86842C14.2446 6.1579 12.3453 4.97368 9.25899 4.97368C6.41007 4.97368 3.79856 6.63158 2.3741 8.05263L0 4.5C2.13669 2.36842 5.46043 0 9.25899 0C12.8201 0 14.9568 1.42105 16.8561 2.13158C18.7554 2.84211 20.6547 4.26316 23.741 4.26316C26.5899 4.26316 29.2014 2.36842 30.6259 0.947369L33 4.73684ZM33 4.73684C30.8633 6.86842 27.6446 8.99946 23.846 8.99946C20.2849 8.99946 18.0432 7.81579 16.1439 6.86842C14.2446 6.1579 12.3453 4.97368 9.25899 4.97368C6.41007 4.97368 3.79856 6.63158 2.3741 8.05263L0 4.5C2.13669 2.36842 5.46043 0 9.25899 0C12.8201 0 14.9568 1.38367 16.8561 2.33104C18.7554 3.04156 20.6547 4.26316 23.741 4.26316C26.5899 4.26316 29.2014 2.36842 30.6259 0.947369L33 4.73684Z" fill="white"/>
</svg>
