<svg width="23" height="18" viewBox="0 0 23 18" fill="none" xmlns="http://www.w3.org/2000/svg">
<path d="M4.96369 0.319856C4.86772 0.219833 4.7534 0.140107 4.62725 0.0852336C4.50111 0.03036 4.36562 0.00141417 4.22852 5.05369e-05C4.09142 -0.0013131 3.95539 0.0249318 3.82823 0.0772859C3.70106 0.12964 3.58524 0.207077 3.48738 0.305172C2.38043 1.42933 1.50236 2.76626 0.903808 4.23882C0.305259 5.71139 -0.0019147 7.29044 8.97964e-06 8.88489C-0.00178639 10.5405 0.329561 12.1788 0.973487 13.6982C1.61741 15.2176 2.56017 16.5855 3.74326 17.7172C3.94238 17.9052 4.2054 18.0065 4.47648 17.9997C4.74757 17.9928 5.00536 17.8783 5.19513 17.6805C5.64938 17.2164 5.59332 16.4779 5.15632 16.0506C4.20685 15.1263 3.45129 14.0144 2.93555 12.7826C2.41982 11.5507 2.15468 10.2246 2.15626 8.88489C2.15626 6.17427 3.22144 3.71621 4.94932 1.92773C5.36619 1.49456 5.40932 0.775052 4.96369 0.319856ZM7.49513 2.9086C7.30581 2.70962 7.04699 2.59541 6.77538 2.59101C6.50378 2.5866 6.24154 2.69236 6.04613 2.88511C5.26837 3.66915 4.65102 4.60337 4.23 5.63339C3.80899 6.66342 3.59271 7.76869 3.59376 8.88489C3.59207 10.0651 3.83347 11.2325 4.30229 12.3112C4.7711 13.3899 5.45684 14.3557 6.31494 15.146C6.51223 15.3241 6.76903 15.4178 7.03211 15.4077C7.29519 15.3975 7.54437 15.2844 7.728 15.0917C8.1995 14.6101 8.11182 13.8524 7.66907 13.4266C7.06217 12.8438 6.57873 12.1401 6.24865 11.3589C5.91857 10.5778 5.74886 9.73572 5.75 8.88489C5.75 7.19626 6.40694 5.66327 7.475 4.5385C7.88613 4.1068 7.95369 3.37554 7.49513 2.9086ZM15.5049 2.9086C15.6942 2.70962 15.953 2.59541 16.2246 2.59101C16.4962 2.5866 16.7585 2.69236 16.9539 2.88511C17.7316 3.66915 18.349 4.60337 18.77 5.63339C19.191 6.66342 19.4073 7.76869 19.4062 8.88489C19.4079 10.0651 19.1665 11.2325 18.6977 12.3112C18.2289 13.3899 17.5432 14.3557 16.6851 15.146C16.4878 15.3241 16.231 15.4178 15.9679 15.4077C15.7048 15.3975 15.4556 15.2844 15.272 15.0917C14.8005 14.6101 14.8882 13.8524 15.3309 13.4266C15.9378 12.8438 16.4213 12.1401 16.7514 11.3589C17.0814 10.5778 17.2511 9.73572 17.25 8.88489C17.25 7.19626 16.5931 5.66327 15.525 4.5385C15.1139 4.1068 15.0463 3.37554 15.5049 2.9086ZM18.0363 0.321324C18.1323 0.221302 18.2466 0.141575 18.3727 0.0867019C18.4989 0.0318283 18.6344 0.00288279 18.7715 0.00151916C18.9086 0.00015552 19.0446 0.0264001 19.1718 0.0787542C19.2989 0.131108 19.4148 0.208545 19.5126 0.30664C20.6194 1.43062 21.4974 2.76731 22.0959 4.23961C22.6945 5.71191 23.0017 7.29069 23 8.88489C23.0018 10.5405 22.6704 12.1788 22.0265 13.6982C21.3826 15.2176 20.4398 16.5855 19.2567 17.7172C19.0576 17.9052 18.7946 18.0065 18.5235 17.9997C18.2524 17.9928 17.9946 17.8783 17.8049 17.6805C17.3506 17.2164 17.4067 16.4779 17.8451 16.0506C18.7943 15.1261 19.5496 14.0142 20.0651 12.7824C20.5806 11.5506 20.8455 10.2245 20.8437 8.88489C20.8437 6.17427 19.7786 3.71621 18.0507 1.92773C17.6338 1.49456 17.5907 0.775052 18.0363 0.319856V0.321324ZM11.5 6.68233C10.9281 6.68233 10.3797 6.91438 9.9753 7.32744C9.57093 7.7405 9.34375 8.30073 9.34375 8.88489C9.34375 9.46904 9.57093 10.0293 9.9753 10.4423C10.3797 10.8554 10.9281 11.0875 11.5 11.0875C12.0719 11.0875 12.6203 10.8554 13.0247 10.4423C13.4291 10.0293 13.6562 9.46904 13.6562 8.88489C13.6562 8.30073 13.4291 7.7405 13.0247 7.32744C12.6203 6.91438 12.0719 6.68233 11.5 6.68233Z" fill="white"/>
</svg>
