<svg width="55" height="44" viewBox="0 0 55 44" fill="none" xmlns="http://www.w3.org/2000/svg">
<path d="M5.41667 43.3333C3.92709 43.3333 2.65146 42.8025 1.5898 41.7408C0.528129 40.6792 -0.00180096 39.4044 4.59819e-06 37.9167V5.41667C4.59819e-06 3.92709 0.530838 2.65146 1.5925 1.5898C2.65417 0.528129 3.92889 -0.00180096 5.41667 4.59819e-06H48.75C50.2396 4.59819e-06 51.5152 0.530837 52.5769 1.5925C53.6385 2.65417 54.1685 3.92889 54.1667 5.41667V37.9167C54.1667 39.4063 53.6358 40.6819 52.5742 41.7435C51.5125 42.8052 50.2378 43.3351 48.75 43.3333H5.41667ZM27.0833 24.375L5.41667 10.8333V37.9167H48.75V10.8333L27.0833 24.375ZM27.0833 18.9583L48.75 5.41667H5.41667L27.0833 18.9583ZM5.41667 10.8333V5.41667V37.9167V10.8333Z" fill="white"/>
</svg>
