<svg width="21" height="22" viewBox="0 0 21 22" fill="none" xmlns="http://www.w3.org/2000/svg">
<path d="M18.9617 11.525C18.7933 11.3332 18.7004 11.0867 18.7004 10.8314C18.7004 10.5761 18.7933 10.3296 18.9617 10.1378L20.3069 8.62453C20.4551 8.45919 20.5472 8.25115 20.5698 8.03026C20.5925 7.80937 20.5446 7.58697 20.433 7.39499L18.3312 3.7589C18.2208 3.56713 18.0526 3.41512 17.8507 3.32455C17.6488 3.23397 17.4234 3.20944 17.2068 3.25447L15.2311 3.65381C14.9797 3.70575 14.718 3.66388 14.4953 3.53611C14.2727 3.40833 14.1045 3.20348 14.0225 2.96022L13.3815 1.03708C13.311 0.828352 13.1767 0.647058 12.9975 0.518825C12.8184 0.390592 12.6035 0.321905 12.3832 0.322474H8.17958C7.95041 0.310513 7.72363 0.37389 7.53387 0.502927C7.34411 0.631964 7.20181 0.819567 7.12868 1.03708L6.54018 2.96022C6.45822 3.20348 6.29004 3.40833 6.0674 3.53611C5.84476 3.66388 5.58305 3.70575 5.33166 3.65381L3.30343 3.25447C3.09804 3.22544 2.88864 3.25785 2.70164 3.34762C2.51463 3.43738 2.35837 3.58048 2.25254 3.7589L0.150752 7.39499C0.0363725 7.58483 -0.0150561 7.80598 0.00381847 8.02681C0.022693 8.24764 0.110904 8.45685 0.255841 8.62453L1.59048 10.1378C1.75895 10.3296 1.85187 10.5761 1.85187 10.8314C1.85187 11.0867 1.75895 11.3332 1.59048 11.525L0.255841 13.0383C0.110904 13.206 0.022693 13.4152 0.00381847 13.636C-0.0150561 13.8568 0.0363725 14.078 0.150752 14.2678L2.25254 17.9039C2.36299 18.0957 2.53115 18.2477 2.73306 18.3383C2.93497 18.4289 3.16033 18.4534 3.377 18.4084L5.35267 18.009C5.60407 17.9571 5.86578 17.9989 6.08842 18.1267C6.31106 18.2545 6.47923 18.4593 6.5612 18.7026L7.20225 20.6257C7.27537 20.8433 7.41768 21.0309 7.60744 21.1599C7.7972 21.2889 8.02398 21.3523 8.25314 21.3403H12.4567C12.677 21.3409 12.8919 21.2722 13.0711 21.144C13.2502 21.0158 13.3846 20.8345 13.4551 20.6257L14.0961 18.7026C14.1781 18.4593 14.3463 18.2545 14.5689 18.1267C14.7915 17.9989 15.0532 17.9571 15.3046 18.009L17.2803 18.4084C17.497 18.4534 17.7223 18.4289 17.9242 18.3383C18.1262 18.2477 18.2943 18.0957 18.4048 17.9039L20.5066 14.2678C20.6181 14.0758 20.666 13.8535 20.6434 13.6326C20.6207 13.4117 20.5287 13.2036 20.3805 13.0383L18.9617 11.525ZM17.3959 12.9332L18.2366 13.879L16.8915 16.212L15.6514 15.9598C14.8946 15.8051 14.1072 15.9336 13.4389 16.3211C12.7705 16.7085 12.2677 17.3279 12.0258 18.0616L11.6265 19.2386H8.93622L8.5579 18.0405C8.31604 17.3068 7.81322 16.6875 7.14487 16.3001C6.47653 15.9126 5.68919 15.784 4.93232 15.9388L3.69226 16.191L2.3261 13.8685L3.16682 12.9227C3.68381 12.3447 3.96963 11.5964 3.96963 10.8209C3.96963 10.0454 3.68381 9.29713 3.16682 8.71911L2.3261 7.77331L3.67125 5.46134L4.9113 5.71356C5.66817 5.86827 6.45551 5.7397 7.12386 5.35226C7.7922 4.96481 8.29502 4.34546 8.53688 3.61177L8.93622 2.42426H11.6265L12.0258 3.62228C12.2677 4.35597 12.7705 4.97532 13.4389 5.36277C14.1072 5.75021 14.8946 5.87878 15.6514 5.72407L16.8915 5.47185L18.2366 7.80484L17.3959 8.75064C16.8847 9.32733 16.6025 10.0713 16.6025 10.8419C16.6025 11.6126 16.8847 12.3565 17.3959 12.9332ZM10.2814 6.62784C9.44998 6.62784 8.63726 6.87437 7.94598 7.33627C7.25471 7.79816 6.71593 8.45467 6.39777 9.22277C6.07961 9.99087 5.99637 10.8361 6.15856 11.6515C6.32076 12.4669 6.72111 13.2159 7.30899 13.8038C7.89687 14.3917 8.64588 14.792 9.46129 14.9542C10.2767 15.1164 11.1219 15.0332 11.89 14.715C12.6581 14.3968 13.3146 13.8581 13.7765 13.1668C14.2384 12.4755 14.4849 11.6628 14.4849 10.8314C14.4849 9.71655 14.0421 8.64736 13.2537 7.85903C12.4654 7.07071 11.3962 6.62784 10.2814 6.62784ZM10.2814 12.9332C9.86567 12.9332 9.45931 12.8099 9.11367 12.579C8.76804 12.348 8.49865 12.0198 8.33957 11.6357C8.18049 11.2517 8.13887 10.8291 8.21996 10.4214C8.30106 10.0137 8.50124 9.63916 8.79518 9.34522C9.08912 9.05128 9.46362 8.85111 9.87133 8.77001C10.279 8.68891 10.7016 8.73053 11.0857 8.88961C11.4697 9.04869 11.798 9.31808 12.0289 9.66372C12.2599 10.0094 12.3832 10.4157 12.3832 10.8314C12.3832 11.3888 12.1617 11.9234 11.7676 12.3176C11.3734 12.7118 10.8388 12.9332 10.2814 12.9332Z" fill="#6ABF00"/>
</svg>
