<svg width="473" height="586" viewBox="0 0 473 586" fill="none" xmlns="http://www.w3.org/2000/svg">
<path d="M236.5 576.25C236.5 576.25 463 463 463 293.125V66.625L236.5 10L10 66.625V293.125C10 463 236.5 576.25 236.5 576.25Z" stroke="url(#paint0_linear_63_7312)" stroke-width="18.5933" stroke-linecap="round" stroke-linejoin="round"/>
<path d="M352.679 270.631C355.828 279.815 364.75 286.375 374.984 286.375C388.104 286.375 398.6 275.879 398.6 262.759C398.6 249.638 388.104 239.142 374.984 239.142C364.75 239.142 356.09 245.702 352.679 254.887H340.871V223.398H361.863C373.409 223.398 382.856 213.951 382.856 202.406V195.845C392.04 192.697 398.6 183.775 398.6 173.541C398.6 160.421 388.104 149.924 374.984 149.924C361.863 149.924 351.367 160.421 351.367 173.541C351.367 183.775 357.927 192.434 367.111 195.845V202.406C367.111 205.292 364.75 207.654 361.863 207.654H340.871C340.871 180.101 318.566 157.797 291.014 157.797V136.804C291.014 133.918 293.376 131.556 296.262 131.556H302.822C305.971 140.74 314.893 147.3 325.127 147.3C338.247 147.3 348.743 136.804 348.743 123.684C348.743 110.564 338.247 100.068 325.127 100.068C314.893 100.068 306.233 106.628 302.822 115.812H296.262C284.716 115.812 275.27 125.258 275.27 136.804V157.797H243.781V145.988C252.965 142.84 259.525 133.918 259.525 123.684C259.525 110.564 249.029 100.068 235.909 100.068C222.789 100.068 212.292 110.564 212.292 123.684C212.292 133.918 218.852 142.577 228.037 145.988V157.797H196.548V136.804C196.548 125.258 187.101 115.812 175.556 115.812H168.995C165.847 106.628 156.925 100.068 146.691 100.068C133.571 100.068 123.075 110.564 123.075 123.684C123.075 136.804 133.571 147.3 146.691 147.3C156.925 147.3 165.584 140.74 168.995 131.556H175.556C178.442 131.556 180.804 133.918 180.804 136.804V157.797C153.251 157.797 130.947 180.101 130.947 207.654H109.954C107.068 207.654 104.706 205.292 104.706 202.406V195.845C113.89 192.697 120.45 183.775 120.45 173.541C120.45 160.421 109.954 149.924 96.834 149.924C83.7137 149.924 73.2175 160.421 73.2175 173.541C73.2175 183.775 79.7777 192.434 88.9618 195.845V202.406C88.9618 213.951 98.4084 223.398 109.954 223.398H130.947V254.887H119.138C115.99 245.702 107.068 239.142 96.834 239.142C83.7137 239.142 73.2175 249.638 73.2175 262.759C73.2175 275.879 83.7137 286.375 96.834 286.375C107.068 286.375 115.727 279.815 119.138 270.631H130.947V302.12H109.954C98.4084 302.12 88.9618 311.566 88.9618 323.112V329.672C79.7777 332.821 73.2175 341.743 73.2175 351.977C73.2175 365.097 83.7137 375.593 96.834 375.593C109.954 375.593 120.45 365.097 120.45 351.977C120.45 341.743 113.89 333.083 104.706 329.672V323.112C104.706 320.225 107.068 317.864 109.954 317.864H130.947C130.947 345.416 153.251 367.721 180.804 367.721V388.713C180.804 391.6 178.442 393.961 175.556 393.961H168.995C165.847 384.777 156.925 378.217 146.691 378.217C133.571 378.217 123.075 388.713 123.075 401.834C123.075 414.954 133.571 425.45 146.691 425.45C156.925 425.45 165.584 418.89 168.995 409.706H175.556C187.101 409.706 196.548 400.259 196.548 388.713V367.721H228.037V379.529C218.852 382.678 212.292 391.6 212.292 401.834C212.292 414.954 222.789 425.45 235.909 425.45C249.029 425.45 259.525 414.954 259.525 401.834C259.525 391.6 252.965 382.94 243.781 379.529V367.721H275.27V388.713C275.27 400.259 284.716 409.706 296.262 409.706H302.822C305.971 418.89 314.893 425.45 325.127 425.45C338.247 425.45 348.743 414.954 348.743 401.834C348.743 388.713 338.247 378.217 325.127 378.217C314.893 378.217 306.233 384.777 302.822 393.961H296.262C293.376 393.961 291.014 391.6 291.014 388.713V367.721C318.566 367.721 340.871 345.416 340.871 317.864H361.863C364.75 317.864 367.111 320.225 367.111 323.112V329.672C357.927 332.821 351.367 341.743 351.367 351.977C351.367 365.097 361.863 375.593 374.984 375.593C388.104 375.593 398.6 365.097 398.6 351.977C398.6 341.743 392.04 333.083 382.856 329.672V323.112C382.856 311.566 373.409 302.12 361.863 302.12H340.871V270.631H352.679ZM374.984 254.887C379.444 254.887 382.856 258.298 382.856 262.759C382.856 267.22 379.444 270.631 374.984 270.631C370.523 270.631 367.111 267.22 367.111 262.759C367.111 258.298 370.523 254.887 374.984 254.887ZM374.984 165.669C379.444 165.669 382.856 169.08 382.856 173.541C382.856 178.002 379.444 181.413 374.984 181.413C370.523 181.413 367.111 178.002 367.111 173.541C367.111 169.08 370.523 165.669 374.984 165.669ZM325.127 115.812C329.587 115.812 332.999 119.223 332.999 123.684C332.999 128.145 329.587 131.556 325.127 131.556C320.666 131.556 317.254 128.145 317.254 123.684C317.254 119.223 320.666 115.812 325.127 115.812ZM235.909 115.812C240.37 115.812 243.781 119.223 243.781 123.684C243.781 128.145 240.37 131.556 235.909 131.556C231.448 131.556 228.037 128.145 228.037 123.684C228.037 119.223 231.448 115.812 235.909 115.812ZM146.691 131.556C142.23 131.556 138.819 128.145 138.819 123.684C138.819 119.223 142.23 115.812 146.691 115.812C151.152 115.812 154.563 119.223 154.563 123.684C154.563 128.145 151.152 131.556 146.691 131.556ZM96.834 165.669C101.295 165.669 104.706 169.08 104.706 173.541C104.706 178.002 101.295 181.413 96.834 181.413C92.3731 181.413 88.9618 178.002 88.9618 173.541C88.9618 169.08 92.3731 165.669 96.834 165.669ZM96.834 270.631C92.3731 270.631 88.9618 267.22 88.9618 262.759C88.9618 258.298 92.3731 254.887 96.834 254.887C101.295 254.887 104.706 258.298 104.706 262.759C104.706 267.22 101.295 270.631 96.834 270.631ZM96.834 359.849C92.3731 359.849 88.9618 356.437 88.9618 351.977C88.9618 347.516 92.3731 344.104 96.834 344.104C101.295 344.104 104.706 347.516 104.706 351.977C104.706 356.437 101.295 359.849 96.834 359.849ZM146.691 409.706C142.23 409.706 138.819 406.294 138.819 401.834C138.819 397.373 142.23 393.961 146.691 393.961C151.152 393.961 154.563 397.373 154.563 401.834C154.563 406.294 151.152 409.706 146.691 409.706ZM235.909 409.706C231.448 409.706 228.037 406.294 228.037 401.834C228.037 397.373 231.448 393.961 235.909 393.961C240.37 393.961 243.781 397.373 243.781 401.834C243.781 406.294 240.37 409.706 235.909 409.706ZM325.127 393.961C329.587 393.961 332.999 397.373 332.999 401.834C332.999 406.294 329.587 409.706 325.127 409.706C320.666 409.706 317.254 406.294 317.254 401.834C317.254 397.373 320.666 393.961 325.127 393.961ZM374.984 359.849C370.523 359.849 367.111 356.437 367.111 351.977C367.111 347.516 370.523 344.104 374.984 344.104C379.444 344.104 382.856 347.516 382.856 351.977C382.856 356.437 379.444 359.849 374.984 359.849ZM325.127 317.864C325.127 336.757 309.907 351.977 291.014 351.977H180.804C161.91 351.977 146.691 336.757 146.691 317.864V207.654C146.691 188.76 161.91 173.541 180.804 173.541H291.014C309.907 173.541 325.127 188.76 325.127 207.654V317.864Z" stroke="url(#paint1_linear_63_7312)" stroke-width="3.11639" stroke-linecap="round" stroke-linejoin="round"/>
<path d="M287.603 197.42C254.802 181.676 217.016 181.676 183.953 197.42C177.917 200.307 173.194 205.03 170.308 211.065C154.563 243.866 154.563 281.652 170.308 314.715C173.194 320.751 177.917 325.474 183.953 328.36C200.484 336.232 218.065 340.169 235.646 340.169C253.228 340.169 271.071 336.232 287.34 328.36C293.376 325.474 298.099 320.751 300.985 314.715C316.73 281.915 316.73 244.128 300.985 211.065C298.361 205.03 293.638 200.307 287.603 197.42ZM287.078 307.63C285.766 310.254 283.667 312.616 280.78 313.928C252.178 327.573 219.377 327.573 190.775 313.928C188.151 312.616 185.789 310.517 184.477 307.63C170.832 279.028 170.832 246.227 184.477 217.625C185.789 215.001 187.889 212.64 190.775 211.328C204.945 204.505 220.427 201.094 235.646 201.094C251.128 201.094 266.348 204.505 280.518 211.328C283.142 212.64 285.503 214.739 286.815 217.625C300.723 246.49 300.723 279.29 287.078 307.63Z" stroke="url(#paint2_linear_63_7312)" stroke-width="3.11639" stroke-linecap="round" stroke-linejoin="round"/>
<path d="M227.512 231.27C226.462 228.122 223.313 226.022 220.165 226.022C216.753 226.022 213.867 228.122 212.817 231.27L191.825 289C190.25 293.198 192.35 297.659 196.548 298.971C200.747 300.545 205.207 298.446 206.519 294.248L208.356 289H231.71L233.547 294.248C234.597 297.396 237.746 299.496 240.895 299.496C241.682 299.496 242.731 299.233 243.519 298.971C247.717 297.396 249.816 292.936 248.242 289L227.512 231.27ZM214.129 273.255L220.165 256.986L226.2 273.255H214.129ZM267.397 226.022C262.937 226.022 259.525 229.434 259.525 233.894V291.624C259.525 296.084 262.937 299.496 267.397 299.496C271.858 299.496 275.27 296.084 275.27 291.624V233.894C275.27 229.434 271.858 226.022 267.397 226.022Z" stroke="url(#paint3_linear_63_7312)" stroke-width="3.11639" stroke-linecap="round" stroke-linejoin="round"/>
<defs>
<linearGradient id="paint0_linear_63_7312" x1="236.5" y1="10" x2="236.5" y2="576.25" gradientUnits="userSpaceOnUse">
<stop stop-color="#299C00"/>
<stop offset="0.470839" stop-color="#153F07"/>
<stop offset="1" stop-color="#97D700"/>
</linearGradient>
<linearGradient id="paint1_linear_63_7312" x1="235.909" y1="100.068" x2="235.909" y2="425.45" gradientUnits="userSpaceOnUse">
<stop stop-color="#299C00"/>
<stop offset="1" stop-color="#97D700"/>
</linearGradient>
<linearGradient id="paint2_linear_63_7312" x1="235.646" y1="185.612" x2="235.646" y2="340.169" gradientUnits="userSpaceOnUse">
<stop stop-color="#299C00"/>
<stop offset="1" stop-color="#97D700"/>
</linearGradient>
<linearGradient id="paint3_linear_63_7312" x1="233.286" y1="226.022" x2="233.286" y2="299.496" gradientUnits="userSpaceOnUse">
<stop stop-color="#299C00"/>
<stop offset="1" stop-color="#97D700"/>
</linearGradient>
</defs>
</svg>
